<mxfile host="app.diagrams.net" modified="2020-10-17T05:17:08.952Z" agent="5.0 (Windows NT 10.0; Win64; x64) AppleWebKit/537.36 (KHTML, like Gecko) Chrome/81.0.4044.138 Safari/537.36" etag="MnHxWYr5h1XYtXrN8HQv" version="13.7.9" type="github">
  <diagram id="vUPeiN3E9wB5yPIPzSWP" name="Page-1">
    <mxGraphModel dx="2213" dy="725" grid="1" gridSize="10" guides="1" tooltips="1" connect="1" arrows="1" fold="1" page="1" pageScale="1" pageWidth="827" pageHeight="1169" math="0" shadow="0">
      <root>
        <mxCell id="0" />
        <mxCell id="1" parent="0" />
        <mxCell id="FTc1yLrN9kVpRQPn8cH3-90" value="" style="rounded=1;whiteSpace=wrap;html=1;comic=1;sketch=0;strokeWidth=1;fontFamily=Comic Sans MS;fontSize=16;fillColor=#f9f7ed;strokeColor=none;" vertex="1" parent="1">
          <mxGeometry x="70" y="200" width="270" height="140" as="geometry" />
        </mxCell>
        <mxCell id="FTc1yLrN9kVpRQPn8cH3-1" value="&lt;font style=&quot;font-size: 16px&quot;&gt;Tag&lt;/font&gt;" style="rounded=1;whiteSpace=wrap;html=1;strokeWidth=1;fillWeight=4;hachureGap=8;hachureAngle=45;sketch=0;comic=1;fontFamily=Comic Sans MS;fillColor=#ffe6cc;strokeColor=#d79b00;fontSize=16;" vertex="1" parent="1">
          <mxGeometry x="80" y="280" width="80" height="40" as="geometry" />
        </mxCell>
        <mxCell id="FTc1yLrN9kVpRQPn8cH3-83" style="edgeStyle=orthogonalEdgeStyle;rounded=0;orthogonalLoop=1;jettySize=auto;html=1;fontFamily=Comic Sans MS;fontSize=16;entryX=0;entryY=0.7;entryDx=0;entryDy=0;entryPerimeter=0;exitX=0.5;exitY=1;exitDx=0;exitDy=0;fillColor=#e51400;strokeColor=#B20000;" edge="1" parent="1" source="FTc1yLrN9kVpRQPn8cH3-2" target="FTc1yLrN9kVpRQPn8cH3-74">
          <mxGeometry relative="1" as="geometry">
            <Array as="points">
              <mxPoint x="200" y="380" />
              <mxPoint x="-45" y="380" />
              <mxPoint x="-45" y="514" />
            </Array>
          </mxGeometry>
        </mxCell>
        <mxCell id="FTc1yLrN9kVpRQPn8cH3-2" value="&lt;font style=&quot;font-size: 16px&quot;&gt;Index&lt;/font&gt;" style="rounded=1;whiteSpace=wrap;html=1;strokeWidth=1;fillWeight=4;hachureGap=8;hachureAngle=45;sketch=0;comic=1;fontFamily=Comic Sans MS;fillColor=#dae8fc;strokeColor=#6c8ebf;fontSize=16;" vertex="1" parent="1">
          <mxGeometry x="160" y="280" width="80" height="40" as="geometry" />
        </mxCell>
        <mxCell id="FTc1yLrN9kVpRQPn8cH3-3" value="&lt;span style=&quot;font-size: 16px&quot;&gt;Offset&lt;/span&gt;" style="rounded=1;whiteSpace=wrap;html=1;strokeWidth=1;fillWeight=4;hachureGap=8;hachureAngle=45;sketch=0;comic=1;fontFamily=Comic Sans MS;fillColor=#f5f5f5;strokeColor=#666666;fontColor=#333333;fontSize=16;" vertex="1" parent="1">
          <mxGeometry x="240" y="280" width="80" height="40" as="geometry" />
        </mxCell>
        <mxCell id="FTc1yLrN9kVpRQPn8cH3-4" value="组标记" style="text;html=1;align=center;verticalAlign=middle;resizable=0;points=[];autosize=1;fontFamily=Comic Sans MS;fontSize=16;" vertex="1" parent="1">
          <mxGeometry x="90" y="250" width="60" height="20" as="geometry" />
        </mxCell>
        <mxCell id="FTc1yLrN9kVpRQPn8cH3-5" value="索引" style="text;html=1;align=center;verticalAlign=middle;resizable=0;points=[];autosize=1;fontFamily=Comic Sans MS;fontSize=16;" vertex="1" parent="1">
          <mxGeometry x="175" y="250" width="50" height="20" as="geometry" />
        </mxCell>
        <mxCell id="FTc1yLrN9kVpRQPn8cH3-6" value="偏移量" style="text;html=1;align=center;verticalAlign=middle;resizable=0;points=[];autosize=1;fontFamily=Comic Sans MS;fontSize=16;" vertex="1" parent="1">
          <mxGeometry x="250" y="250" width="60" height="20" as="geometry" />
        </mxCell>
        <mxCell id="FTc1yLrN9kVpRQPn8cH3-7" value="&lt;font style=&quot;font-size: 16px&quot;&gt;0&lt;/font&gt;" style="rounded=1;whiteSpace=wrap;html=1;strokeWidth=1;fillWeight=4;hachureGap=8;hachureAngle=45;sketch=0;comic=1;fontFamily=Comic Sans MS;fillColor=#f8cecc;strokeColor=#b85450;fontSize=16;" vertex="1" parent="1">
          <mxGeometry x="80" y="450" width="80" height="40" as="geometry" />
        </mxCell>
        <mxCell id="FTc1yLrN9kVpRQPn8cH3-8" value="" style="rounded=1;whiteSpace=wrap;html=1;strokeWidth=1;fillWeight=4;hachureGap=8;hachureAngle=45;sketch=0;comic=1;fontFamily=Comic Sans MS;fontSize=16;" vertex="1" parent="1">
          <mxGeometry x="160" y="450" width="80" height="40" as="geometry" />
        </mxCell>
        <mxCell id="FTc1yLrN9kVpRQPn8cH3-9" value="" style="rounded=1;whiteSpace=wrap;html=1;strokeWidth=1;fillWeight=4;hachureGap=8;hachureAngle=45;sketch=0;comic=1;fontFamily=Comic Sans MS;fillColor=#d5e8d4;strokeColor=#82b366;fontSize=16;" vertex="1" parent="1">
          <mxGeometry x="240" y="450" width="80" height="40" as="geometry" />
        </mxCell>
        <mxCell id="FTc1yLrN9kVpRQPn8cH3-10" value="" style="rounded=1;whiteSpace=wrap;html=1;strokeWidth=1;fillWeight=4;hachureGap=8;hachureAngle=45;sketch=0;comic=1;fontFamily=Comic Sans MS;fillColor=#d5e8d4;strokeColor=#82b366;fontSize=16;" vertex="1" parent="1">
          <mxGeometry x="320" y="450" width="80" height="40" as="geometry" />
        </mxCell>
        <mxCell id="FTc1yLrN9kVpRQPn8cH3-11" value="" style="rounded=1;whiteSpace=wrap;html=1;strokeWidth=1;fillWeight=4;hachureGap=8;hachureAngle=45;sketch=0;comic=1;fontFamily=Comic Sans MS;fillColor=#d5e8d4;strokeColor=#82b366;fontSize=16;" vertex="1" parent="1">
          <mxGeometry x="480" y="450" width="80" height="40" as="geometry" />
        </mxCell>
        <mxCell id="FTc1yLrN9kVpRQPn8cH3-12" value="" style="rounded=1;whiteSpace=wrap;html=1;strokeWidth=1;fillWeight=4;hachureGap=8;hachureAngle=45;sketch=0;comic=1;fontFamily=Comic Sans MS;fillColor=#d5e8d4;strokeColor=#82b366;fontSize=16;" vertex="1" parent="1">
          <mxGeometry x="400" y="450" width="80" height="40" as="geometry" />
        </mxCell>
        <mxCell id="FTc1yLrN9kVpRQPn8cH3-14" value="" style="rounded=1;whiteSpace=wrap;html=1;strokeWidth=1;fillWeight=4;hachureGap=8;hachureAngle=45;sketch=0;comic=1;fontFamily=Comic Sans MS;fillColor=#d5e8d4;strokeColor=#82b366;fontSize=16;" vertex="1" parent="1">
          <mxGeometry x="560" y="450" width="80" height="40" as="geometry" />
        </mxCell>
        <mxCell id="FTc1yLrN9kVpRQPn8cH3-16" value="&lt;font style=&quot;font-size: 16px&quot;&gt;1&lt;/font&gt;" style="rounded=1;whiteSpace=wrap;html=1;strokeWidth=1;fillWeight=4;hachureGap=8;hachureAngle=45;sketch=0;comic=1;fontFamily=Comic Sans MS;fillColor=#dae8fc;strokeColor=#6c8ebf;fontSize=16;" vertex="1" parent="1">
          <mxGeometry x="80" y="490" width="80" height="40" as="geometry" />
        </mxCell>
        <mxCell id="FTc1yLrN9kVpRQPn8cH3-17" value="" style="rounded=1;whiteSpace=wrap;html=1;strokeWidth=1;fillWeight=4;hachureGap=8;hachureAngle=45;sketch=0;comic=1;fontFamily=Comic Sans MS;fillColor=#ffe6cc;strokeColor=#d79b00;fontSize=16;" vertex="1" parent="1">
          <mxGeometry x="160" y="490" width="80" height="40" as="geometry" />
        </mxCell>
        <mxCell id="FTc1yLrN9kVpRQPn8cH3-18" value="" style="rounded=1;whiteSpace=wrap;html=1;strokeWidth=1;fillWeight=4;hachureGap=8;hachureAngle=45;sketch=0;comic=1;fontFamily=Comic Sans MS;fillColor=#d5e8d4;strokeColor=#82b366;fontSize=16;" vertex="1" parent="1">
          <mxGeometry x="240" y="490" width="80" height="40" as="geometry" />
        </mxCell>
        <mxCell id="FTc1yLrN9kVpRQPn8cH3-19" value="" style="rounded=1;whiteSpace=wrap;html=1;strokeWidth=1;fillWeight=4;hachureGap=8;hachureAngle=45;sketch=0;comic=1;fontFamily=Comic Sans MS;fillColor=#60a917;strokeColor=#2D7600;fontColor=#ffffff;fontSize=16;" vertex="1" parent="1">
          <mxGeometry x="320" y="490" width="80" height="40" as="geometry" />
        </mxCell>
        <mxCell id="FTc1yLrN9kVpRQPn8cH3-20" value="" style="rounded=1;whiteSpace=wrap;html=1;strokeWidth=1;fillWeight=4;hachureGap=8;hachureAngle=45;sketch=0;comic=1;fontFamily=Comic Sans MS;fillColor=#d5e8d4;strokeColor=#82b366;fontSize=16;" vertex="1" parent="1">
          <mxGeometry x="480" y="490" width="80" height="40" as="geometry" />
        </mxCell>
        <mxCell id="FTc1yLrN9kVpRQPn8cH3-21" value="" style="rounded=1;whiteSpace=wrap;html=1;strokeWidth=1;fillWeight=4;hachureGap=8;hachureAngle=45;sketch=0;comic=1;fontFamily=Comic Sans MS;fillColor=#d5e8d4;strokeColor=#82b366;fontSize=16;" vertex="1" parent="1">
          <mxGeometry x="400" y="490" width="80" height="40" as="geometry" />
        </mxCell>
        <mxCell id="FTc1yLrN9kVpRQPn8cH3-22" value="" style="rounded=1;whiteSpace=wrap;html=1;strokeWidth=1;fillWeight=4;hachureGap=8;hachureAngle=45;sketch=0;comic=1;fontFamily=Comic Sans MS;fillColor=#d5e8d4;strokeColor=#82b366;fontSize=16;" vertex="1" parent="1">
          <mxGeometry x="560" y="490" width="80" height="40" as="geometry" />
        </mxCell>
        <mxCell id="FTc1yLrN9kVpRQPn8cH3-23" value="" style="rounded=1;whiteSpace=wrap;html=1;strokeWidth=1;fillWeight=4;hachureGap=8;hachureAngle=45;sketch=0;comic=1;fontFamily=Comic Sans MS;fontSize=16;" vertex="1" parent="1">
          <mxGeometry x="80" y="530" width="80" height="40" as="geometry" />
        </mxCell>
        <mxCell id="FTc1yLrN9kVpRQPn8cH3-24" value="" style="rounded=1;whiteSpace=wrap;html=1;strokeWidth=1;fillWeight=4;hachureGap=8;hachureAngle=45;sketch=0;comic=1;fontFamily=Comic Sans MS;fontSize=16;" vertex="1" parent="1">
          <mxGeometry x="160" y="530" width="80" height="40" as="geometry" />
        </mxCell>
        <mxCell id="FTc1yLrN9kVpRQPn8cH3-25" value="" style="rounded=1;whiteSpace=wrap;html=1;strokeWidth=1;fillWeight=4;hachureGap=8;hachureAngle=45;sketch=0;comic=1;fontFamily=Comic Sans MS;fillColor=#d5e8d4;strokeColor=#82b366;fontSize=16;" vertex="1" parent="1">
          <mxGeometry x="240" y="530" width="80" height="40" as="geometry" />
        </mxCell>
        <mxCell id="FTc1yLrN9kVpRQPn8cH3-26" value="" style="rounded=1;whiteSpace=wrap;html=1;strokeWidth=1;fillWeight=4;hachureGap=8;hachureAngle=45;sketch=0;comic=1;fontFamily=Comic Sans MS;fillColor=#d5e8d4;strokeColor=#82b366;fontSize=16;" vertex="1" parent="1">
          <mxGeometry x="320" y="530" width="80" height="40" as="geometry" />
        </mxCell>
        <mxCell id="FTc1yLrN9kVpRQPn8cH3-27" value="" style="rounded=1;whiteSpace=wrap;html=1;strokeWidth=1;fillWeight=4;hachureGap=8;hachureAngle=45;sketch=0;comic=1;fontFamily=Comic Sans MS;fillColor=#d5e8d4;strokeColor=#82b366;fontSize=16;" vertex="1" parent="1">
          <mxGeometry x="480" y="530" width="80" height="40" as="geometry" />
        </mxCell>
        <mxCell id="FTc1yLrN9kVpRQPn8cH3-28" value="" style="rounded=1;whiteSpace=wrap;html=1;strokeWidth=1;fillWeight=4;hachureGap=8;hachureAngle=45;sketch=0;comic=1;fontFamily=Comic Sans MS;fillColor=#d5e8d4;strokeColor=#82b366;fontSize=16;" vertex="1" parent="1">
          <mxGeometry x="400" y="530" width="80" height="40" as="geometry" />
        </mxCell>
        <mxCell id="FTc1yLrN9kVpRQPn8cH3-29" value="" style="rounded=1;whiteSpace=wrap;html=1;strokeWidth=1;fillWeight=4;hachureGap=8;hachureAngle=45;sketch=0;comic=1;fontFamily=Comic Sans MS;fillColor=#d5e8d4;strokeColor=#82b366;fontSize=16;" vertex="1" parent="1">
          <mxGeometry x="560" y="530" width="80" height="40" as="geometry" />
        </mxCell>
        <mxCell id="FTc1yLrN9kVpRQPn8cH3-44" value="" style="rounded=1;whiteSpace=wrap;html=1;strokeWidth=1;fillWeight=4;hachureGap=8;hachureAngle=45;sketch=0;comic=1;fontFamily=Comic Sans MS;fontSize=16;" vertex="1" parent="1">
          <mxGeometry x="80" y="570" width="80" height="40" as="geometry" />
        </mxCell>
        <mxCell id="FTc1yLrN9kVpRQPn8cH3-45" value="" style="rounded=1;whiteSpace=wrap;html=1;strokeWidth=1;fillWeight=4;hachureGap=8;hachureAngle=45;sketch=0;comic=1;fontFamily=Comic Sans MS;fontSize=16;" vertex="1" parent="1">
          <mxGeometry x="160" y="570" width="80" height="40" as="geometry" />
        </mxCell>
        <mxCell id="FTc1yLrN9kVpRQPn8cH3-46" value="" style="rounded=1;whiteSpace=wrap;html=1;strokeWidth=1;fillWeight=4;hachureGap=8;hachureAngle=45;sketch=0;comic=1;fontFamily=Comic Sans MS;fillColor=#d5e8d4;strokeColor=#82b366;fontSize=16;" vertex="1" parent="1">
          <mxGeometry x="240" y="570" width="80" height="40" as="geometry" />
        </mxCell>
        <mxCell id="FTc1yLrN9kVpRQPn8cH3-47" value="" style="rounded=1;whiteSpace=wrap;html=1;strokeWidth=1;fillWeight=4;hachureGap=8;hachureAngle=45;sketch=0;comic=1;fontFamily=Comic Sans MS;fillColor=#d5e8d4;strokeColor=#82b366;fontSize=16;" vertex="1" parent="1">
          <mxGeometry x="320" y="570" width="80" height="40" as="geometry" />
        </mxCell>
        <mxCell id="FTc1yLrN9kVpRQPn8cH3-48" value="" style="rounded=1;whiteSpace=wrap;html=1;strokeWidth=1;fillWeight=4;hachureGap=8;hachureAngle=45;sketch=0;comic=1;fontFamily=Comic Sans MS;fillColor=#d5e8d4;strokeColor=#82b366;fontSize=16;" vertex="1" parent="1">
          <mxGeometry x="480" y="570" width="80" height="40" as="geometry" />
        </mxCell>
        <mxCell id="FTc1yLrN9kVpRQPn8cH3-49" value="" style="rounded=1;whiteSpace=wrap;html=1;strokeWidth=1;fillWeight=4;hachureGap=8;hachureAngle=45;sketch=0;comic=1;fontFamily=Comic Sans MS;fillColor=#d5e8d4;strokeColor=#82b366;fontSize=16;" vertex="1" parent="1">
          <mxGeometry x="400" y="570" width="80" height="40" as="geometry" />
        </mxCell>
        <mxCell id="FTc1yLrN9kVpRQPn8cH3-50" value="" style="rounded=1;whiteSpace=wrap;html=1;strokeWidth=1;fillWeight=4;hachureGap=8;hachureAngle=45;sketch=0;comic=1;fontFamily=Comic Sans MS;fillColor=#d5e8d4;strokeColor=#82b366;fontSize=16;" vertex="1" parent="1">
          <mxGeometry x="560" y="570" width="80" height="40" as="geometry" />
        </mxCell>
        <mxCell id="FTc1yLrN9kVpRQPn8cH3-51" value="1" style="rounded=1;whiteSpace=wrap;html=1;strokeWidth=1;fillWeight=4;hachureGap=8;hachureAngle=45;sketch=0;comic=1;fontFamily=Comic Sans MS;fontSize=16;fillColor=#dae8fc;strokeColor=#6c8ebf;" vertex="1" parent="1">
          <mxGeometry x="80" y="610" width="80" height="40" as="geometry" />
        </mxCell>
        <mxCell id="FTc1yLrN9kVpRQPn8cH3-52" value="" style="rounded=1;whiteSpace=wrap;html=1;strokeWidth=1;fillWeight=4;hachureGap=8;hachureAngle=45;sketch=0;comic=1;fontFamily=Comic Sans MS;fontSize=16;" vertex="1" parent="1">
          <mxGeometry x="160" y="610" width="80" height="40" as="geometry" />
        </mxCell>
        <mxCell id="FTc1yLrN9kVpRQPn8cH3-53" value="" style="rounded=1;whiteSpace=wrap;html=1;strokeWidth=1;fillWeight=4;hachureGap=8;hachureAngle=45;sketch=0;comic=1;fontFamily=Comic Sans MS;fillColor=#d5e8d4;strokeColor=#82b366;fontSize=16;" vertex="1" parent="1">
          <mxGeometry x="240" y="610" width="80" height="40" as="geometry" />
        </mxCell>
        <mxCell id="FTc1yLrN9kVpRQPn8cH3-54" value="" style="rounded=1;whiteSpace=wrap;html=1;strokeWidth=1;fillWeight=4;hachureGap=8;hachureAngle=45;sketch=0;comic=1;fontFamily=Comic Sans MS;fillColor=#d5e8d4;strokeColor=#82b366;fontSize=16;" vertex="1" parent="1">
          <mxGeometry x="320" y="610" width="80" height="40" as="geometry" />
        </mxCell>
        <mxCell id="FTc1yLrN9kVpRQPn8cH3-55" value="" style="rounded=1;whiteSpace=wrap;html=1;strokeWidth=1;fillWeight=4;hachureGap=8;hachureAngle=45;sketch=0;comic=1;fontFamily=Comic Sans MS;fillColor=#d5e8d4;strokeColor=#82b366;fontSize=16;" vertex="1" parent="1">
          <mxGeometry x="480" y="610" width="80" height="40" as="geometry" />
        </mxCell>
        <mxCell id="FTc1yLrN9kVpRQPn8cH3-56" value="" style="rounded=1;whiteSpace=wrap;html=1;strokeWidth=1;fillWeight=4;hachureGap=8;hachureAngle=45;sketch=0;comic=1;fontFamily=Comic Sans MS;fillColor=#d5e8d4;strokeColor=#82b366;fontSize=16;" vertex="1" parent="1">
          <mxGeometry x="400" y="610" width="80" height="40" as="geometry" />
        </mxCell>
        <mxCell id="FTc1yLrN9kVpRQPn8cH3-57" value="" style="rounded=1;whiteSpace=wrap;html=1;strokeWidth=1;fillWeight=4;hachureGap=8;hachureAngle=45;sketch=0;comic=1;fontFamily=Comic Sans MS;fillColor=#d5e8d4;strokeColor=#82b366;fontSize=16;" vertex="1" parent="1">
          <mxGeometry x="560" y="610" width="80" height="40" as="geometry" />
        </mxCell>
        <mxCell id="FTc1yLrN9kVpRQPn8cH3-58" value="" style="rounded=1;whiteSpace=wrap;html=1;strokeWidth=1;fillWeight=4;hachureGap=8;hachureAngle=45;sketch=0;comic=1;fontFamily=Comic Sans MS;fontSize=16;" vertex="1" parent="1">
          <mxGeometry x="80" y="650" width="80" height="40" as="geometry" />
        </mxCell>
        <mxCell id="FTc1yLrN9kVpRQPn8cH3-59" value="" style="rounded=1;whiteSpace=wrap;html=1;strokeWidth=1;fillWeight=4;hachureGap=8;hachureAngle=45;sketch=0;comic=1;fontFamily=Comic Sans MS;fontSize=16;" vertex="1" parent="1">
          <mxGeometry x="160" y="650" width="80" height="40" as="geometry" />
        </mxCell>
        <mxCell id="FTc1yLrN9kVpRQPn8cH3-60" value="" style="rounded=1;whiteSpace=wrap;html=1;strokeWidth=1;fillWeight=4;hachureGap=8;hachureAngle=45;sketch=0;comic=1;fontFamily=Comic Sans MS;fillColor=#d5e8d4;strokeColor=#82b366;fontSize=16;" vertex="1" parent="1">
          <mxGeometry x="240" y="650" width="80" height="40" as="geometry" />
        </mxCell>
        <mxCell id="FTc1yLrN9kVpRQPn8cH3-61" value="" style="rounded=1;whiteSpace=wrap;html=1;strokeWidth=1;fillWeight=4;hachureGap=8;hachureAngle=45;sketch=0;comic=1;fontFamily=Comic Sans MS;fillColor=#d5e8d4;strokeColor=#82b366;fontSize=16;" vertex="1" parent="1">
          <mxGeometry x="320" y="650" width="80" height="40" as="geometry" />
        </mxCell>
        <mxCell id="FTc1yLrN9kVpRQPn8cH3-62" value="" style="rounded=1;whiteSpace=wrap;html=1;strokeWidth=1;fillWeight=4;hachureGap=8;hachureAngle=45;sketch=0;comic=1;fontFamily=Comic Sans MS;fillColor=#d5e8d4;strokeColor=#82b366;fontSize=16;" vertex="1" parent="1">
          <mxGeometry x="480" y="650" width="80" height="40" as="geometry" />
        </mxCell>
        <mxCell id="FTc1yLrN9kVpRQPn8cH3-63" value="" style="rounded=1;whiteSpace=wrap;html=1;strokeWidth=1;fillWeight=4;hachureGap=8;hachureAngle=45;sketch=0;comic=1;fontFamily=Comic Sans MS;fillColor=#d5e8d4;strokeColor=#82b366;fontSize=16;" vertex="1" parent="1">
          <mxGeometry x="400" y="650" width="80" height="40" as="geometry" />
        </mxCell>
        <mxCell id="FTc1yLrN9kVpRQPn8cH3-64" value="" style="rounded=1;whiteSpace=wrap;html=1;strokeWidth=1;fillWeight=4;hachureGap=8;hachureAngle=45;sketch=0;comic=1;fontFamily=Comic Sans MS;fillColor=#d5e8d4;strokeColor=#82b366;fontSize=16;" vertex="1" parent="1">
          <mxGeometry x="560" y="650" width="80" height="40" as="geometry" />
        </mxCell>
        <mxCell id="FTc1yLrN9kVpRQPn8cH3-65" value="有效位&lt;br style=&quot;font-size: 16px;&quot;&gt;Valid Bit" style="text;html=1;align=center;verticalAlign=middle;resizable=0;points=[];autosize=1;fontSize=16;fontFamily=Comic Sans MS;" vertex="1" parent="1">
          <mxGeometry x="70" y="400" width="80" height="40" as="geometry" />
        </mxCell>
        <mxCell id="FTc1yLrN9kVpRQPn8cH3-66" value="组标记&lt;br style=&quot;font-size: 16px;&quot;&gt;Tag" style="text;html=1;align=center;verticalAlign=middle;resizable=0;points=[];autosize=1;fontSize=16;fontFamily=Comic Sans MS;" vertex="1" parent="1">
          <mxGeometry x="165" y="400" width="60" height="40" as="geometry" />
        </mxCell>
        <mxCell id="FTc1yLrN9kVpRQPn8cH3-67" value="实际数据&lt;br style=&quot;font-size: 16px;&quot;&gt;Data Bloack" style="text;html=1;align=center;verticalAlign=middle;resizable=0;points=[];autosize=1;fontSize=16;fontFamily=Comic Sans MS;" vertex="1" parent="1">
          <mxGeometry x="370" y="400" width="100" height="40" as="geometry" />
        </mxCell>
        <mxCell id="FTc1yLrN9kVpRQPn8cH3-68" style="edgeStyle=orthogonalEdgeStyle;rounded=0;orthogonalLoop=1;jettySize=auto;html=1;fontFamily=Comic Sans MS;fontSize=16;entryX=0.5;entryY=0.75;entryDx=0;entryDy=0;entryPerimeter=0;fillColor=#e51400;strokeColor=#B20000;" edge="1" parent="1" source="FTc1yLrN9kVpRQPn8cH3-3" target="FTc1yLrN9kVpRQPn8cH3-19">
          <mxGeometry relative="1" as="geometry" />
        </mxCell>
        <mxCell id="FTc1yLrN9kVpRQPn8cH3-69" style="edgeStyle=orthogonalEdgeStyle;rounded=0;orthogonalLoop=1;jettySize=auto;html=1;fontFamily=Comic Sans MS;fontSize=16;exitX=0.5;exitY=1;exitDx=0;exitDy=0;fillColor=#e51400;strokeColor=#B20000;" edge="1" parent="1" source="FTc1yLrN9kVpRQPn8cH3-1">
          <mxGeometry relative="1" as="geometry">
            <mxPoint x="190" y="520" as="targetPoint" />
            <Array as="points">
              <mxPoint x="120" y="350" />
              <mxPoint x="190" y="350" />
            </Array>
          </mxGeometry>
        </mxCell>
        <mxCell id="FTc1yLrN9kVpRQPn8cH3-71" value="Cache Line 0" style="text;html=1;align=center;verticalAlign=middle;resizable=0;points=[];autosize=1;fontSize=16;fontFamily=Comic Sans MS;" vertex="1" parent="1">
          <mxGeometry x="-160" y="460" width="110" height="20" as="geometry" />
        </mxCell>
        <mxCell id="FTc1yLrN9kVpRQPn8cH3-72" value="Index 0" style="text;html=1;align=center;verticalAlign=middle;resizable=0;points=[];autosize=1;fontSize=16;fontFamily=Comic Sans MS;" vertex="1" parent="1">
          <mxGeometry x="-25" y="460" width="70" height="20" as="geometry" />
        </mxCell>
        <mxCell id="FTc1yLrN9kVpRQPn8cH3-73" value="Cache Line 1" style="text;html=1;align=center;verticalAlign=middle;resizable=0;points=[];autosize=1;fontSize=16;fontFamily=Comic Sans MS;" vertex="1" parent="1">
          <mxGeometry x="-160" y="500" width="110" height="20" as="geometry" />
        </mxCell>
        <mxCell id="FTc1yLrN9kVpRQPn8cH3-74" value="Index 1" style="text;html=1;align=center;verticalAlign=middle;resizable=0;points=[];autosize=1;fontSize=16;fontFamily=Comic Sans MS;" vertex="1" parent="1">
          <mxGeometry x="-25" y="500" width="70" height="20" as="geometry" />
        </mxCell>
        <mxCell id="FTc1yLrN9kVpRQPn8cH3-75" value="Cache Line 50" style="text;html=1;align=center;verticalAlign=middle;resizable=0;points=[];autosize=1;fontSize=16;fontFamily=Comic Sans MS;" vertex="1" parent="1">
          <mxGeometry x="-165" y="620" width="120" height="20" as="geometry" />
        </mxCell>
        <mxCell id="FTc1yLrN9kVpRQPn8cH3-76" value="Index 50" style="text;html=1;align=center;verticalAlign=middle;resizable=0;points=[];autosize=1;fontSize=16;fontFamily=Comic Sans MS;" vertex="1" parent="1">
          <mxGeometry x="-30" y="620" width="80" height="20" as="geometry" />
        </mxCell>
        <mxCell id="FTc1yLrN9kVpRQPn8cH3-77" value="......" style="text;html=1;align=center;verticalAlign=middle;resizable=0;points=[];autosize=1;fontSize=16;fontFamily=Comic Sans MS;" vertex="1" parent="1">
          <mxGeometry x="-130" y="530" width="40" height="20" as="geometry" />
        </mxCell>
        <mxCell id="FTc1yLrN9kVpRQPn8cH3-78" value="......" style="text;html=1;align=center;verticalAlign=middle;resizable=0;points=[];autosize=1;fontSize=16;fontFamily=Comic Sans MS;" vertex="1" parent="1">
          <mxGeometry x="-25" y="530" width="40" height="20" as="geometry" />
        </mxCell>
        <mxCell id="FTc1yLrN9kVpRQPn8cH3-79" value="......" style="text;html=1;align=center;verticalAlign=middle;resizable=0;points=[];autosize=1;fontSize=16;fontFamily=Comic Sans MS;" vertex="1" parent="1">
          <mxGeometry x="-130" y="574.5" width="40" height="20" as="geometry" />
        </mxCell>
        <mxCell id="FTc1yLrN9kVpRQPn8cH3-80" value="......" style="text;html=1;align=center;verticalAlign=middle;resizable=0;points=[];autosize=1;fontSize=16;fontFamily=Comic Sans MS;" vertex="1" parent="1">
          <mxGeometry x="-25" y="574.5" width="40" height="20" as="geometry" />
        </mxCell>
        <mxCell id="FTc1yLrN9kVpRQPn8cH3-81" value="......" style="text;html=1;align=center;verticalAlign=middle;resizable=0;points=[];autosize=1;fontSize=16;fontFamily=Comic Sans MS;" vertex="1" parent="1">
          <mxGeometry x="-125" y="660" width="40" height="20" as="geometry" />
        </mxCell>
        <mxCell id="FTc1yLrN9kVpRQPn8cH3-82" value="......" style="text;html=1;align=center;verticalAlign=middle;resizable=0;points=[];autosize=1;fontSize=16;fontFamily=Comic Sans MS;" vertex="1" parent="1">
          <mxGeometry x="-20" y="660" width="40" height="20" as="geometry" />
        </mxCell>
        <mxCell id="FTc1yLrN9kVpRQPn8cH3-88" style="edgeStyle=orthogonalEdgeStyle;rounded=0;orthogonalLoop=1;jettySize=auto;html=1;entryX=0.875;entryY=0.5;entryDx=0;entryDy=0;entryPerimeter=0;fontFamily=Comic Sans MS;fontSize=16;fillColor=#1ba1e2;strokeColor=#006EAF;" edge="1" parent="1" source="FTc1yLrN9kVpRQPn8cH3-84" target="FTc1yLrN9kVpRQPn8cH3-19">
          <mxGeometry relative="1" as="geometry" />
        </mxCell>
        <mxCell id="FTc1yLrN9kVpRQPn8cH3-84" value="CPU 实际读取的数据" style="text;html=1;align=center;verticalAlign=middle;resizable=0;points=[];autosize=1;fontSize=16;fontFamily=Comic Sans MS;" vertex="1" parent="1">
          <mxGeometry x="210" y="730" width="160" height="20" as="geometry" />
        </mxCell>
        <mxCell id="FTc1yLrN9kVpRQPn8cH3-89" value="一个内存地址" style="text;html=1;align=center;verticalAlign=middle;resizable=0;points=[];autosize=1;fontSize=19;fontFamily=Comic Sans MS;fontStyle=1" vertex="1" parent="1">
          <mxGeometry x="140" y="205" width="130" height="30" as="geometry" />
        </mxCell>
      </root>
    </mxGraphModel>
  </diagram>
</mxfile>
